<svg width="15" height="20" viewBox="0 0 15 20" fill="none" xmlns="http://www.w3.org/2000/svg">
<path d="M0.883667 18.9811L1.85917 15.5668C3.76677 16.3878 5.884 16.5891 7.91214 16.1424C10.0924 15.6546 11.3264 14.6206 11.0386 13.3671C10.4484 10.621 2.25913 13.9182 1.0739 8.44567C0.317885 4.91437 2.91758 1.96836 7.67802 0.948963C9.98507 0.461213 12.2287 0.509985 13.931 1.14406L13.0774 4.4949C11.4971 3.90061 9.77637 3.78692 8.13162 4.16811C5.82456 4.65586 4.66373 5.83622 4.92712 7.06535C5.51242 9.88942 13.731 6.57759 14.8675 11.8599C15.6283 15.4205 12.9799 18.3763 8.19503 19.4005C5.4051 20.0053 2.57616 19.7371 0.883667 18.9811Z" fill="white"/>
</svg>
