<svg width="307" height="227" viewBox="0 0 307 227" fill="none" xmlns="http://www.w3.org/2000/svg">
<path d="M306.472 33.7141C306.604 33.7141 306.708 26.1629 306.708 16.8536C306.708 7.54433 306.604 0 306.472 0C306.341 0 306.244 7.54433 306.244 16.8536C306.244 26.1629 306.348 33.7141 306.472 33.7141Z" fill="#E0E0E0"/>
<path d="M306.472 78.1095C306.604 78.1095 306.708 70.5652 306.708 61.2559C306.708 51.9466 306.604 44.3954 306.472 44.3954C306.341 44.3954 306.244 51.9466 306.244 61.2559C306.244 70.5652 306.348 78.1095 306.472 78.1095Z" fill="#E0E0E0"/>
<path d="M306.472 122.509C306.604 122.509 306.708 114.958 306.708 105.648C306.708 96.3392 306.604 88.7949 306.472 88.7949C306.341 88.7949 306.244 96.3392 306.244 105.648C306.244 114.958 306.348 122.509 306.472 122.509Z" fill="#E0E0E0"/>
<path d="M306.472 166.902C306.604 166.902 306.708 159.357 306.708 150.048C306.708 140.739 306.604 133.194 306.472 133.194C306.341 133.194 306.244 140.739 306.244 150.048C306.244 159.357 306.348 166.902 306.472 166.902Z" fill="#E0E0E0"/>
<path d="M306.472 211.302C306.604 211.302 306.708 203.758 306.708 194.448C306.708 185.139 306.604 177.622 306.472 177.622C306.341 177.622 306.244 185.167 306.244 194.483C306.244 203.799 306.348 211.302 306.472 211.302Z" fill="#E0E0E0"/>
<path d="M273.222 25.6189H19.5806C8.76655 25.6189 0 34.3855 0 45.1995V206.773C0 217.587 8.76655 226.353 19.5806 226.353H273.222C284.036 226.353 292.803 217.587 292.803 206.773V45.1995C292.803 34.3855 284.036 25.6189 273.222 25.6189Z" fill="#455A64"/>
<path d="M272.018 34.7835H20.0998C13.2383 34.7835 7.6759 40.3459 7.6759 47.2074V205.112C7.6759 211.974 13.2383 217.536 20.0998 217.536H272.018C278.88 217.536 284.442 211.974 284.442 205.112V47.2074C284.442 40.3459 278.88 34.7835 272.018 34.7835Z" fill="#263238"/>
<path d="M268.878 46.2158H23.2439V199.912H268.878V46.2158Z" fill="white"/>
<path d="M268.878 132.577C268.144 131.968 23.2439 132.093 23.2439 132.093V143.056L268.878 143.541V132.577Z" fill="#E0E0E0"/>
<path d="M74.9094 46.2158L42.1919 91.3087H29.0966L64.2227 46.2158H74.9094Z" fill="#E0E0E0"/>
<path d="M105.055 46.2158L71.9082 114.606H145.144L268.884 96.1883V105.179L146.562 125.5L146.209 122.123H23.2439V113.478H56.695L92.6724 46.2158H105.055Z" fill="#E0E0E0"/>
<path d="M157.599 46.2158L157.17 199.912H129.927L145.57 46.2158H157.599Z" fill="#E0E0E0"/>
<path d="M142.306 87.7398H23.2439V98.2326H142.306V87.7398Z" fill="#E0E0E0"/>
<path d="M23.2439 89.5507H154.702L152.93 199.912H137.011L143.552 95.6416H23.2439V89.5507Z" fill="#ABA0FF"/>
<path d="M189.335 46.2158L197.468 75.168L189.723 76.6076L186.539 65.4849H154.701L157.172 60.8684H185.48L182.296 46.2158H189.335Z" fill="#E0E0E0"/>
<path d="M268.883 73.8343L157.172 87.7394L154.701 80.6934L268.883 65.4871V73.8343Z" fill="#E0E0E0"/>
<path d="M236.705 77.8411L268.883 88.327V93.5873L225.334 79.2531L236.705 77.8411Z" fill="#E0E0E0"/>
<path d="M206.95 81.3364L259.089 97.8578L247.911 100.585L195.474 82.7207L206.95 81.3364Z" fill="#E0E0E0"/>
<path d="M206.972 115.588L227.654 199.912H212.039L196.217 115.588H206.972Z" fill="#E0E0E0"/>
<path d="M268.883 177.772L154.701 157.292V174.651L268.883 194.169V177.772Z" fill="#E0E0E0"/>
<path d="M99.8218 142.377L82.1791 199.374H66.9867L86.5881 143.539L99.8218 142.377Z" fill="#E0E0E0"/>
<path d="M138.803 209.653H140.623V213.148C139.613 213.868 138.403 214.253 137.163 214.249C134.456 214.249 132.456 212.387 132.456 209.784C132.456 207.182 134.456 205.327 137.204 205.327C137.878 205.294 138.55 205.41 139.174 205.667C139.797 205.925 140.356 206.316 140.81 206.815L139.53 207.999C139.25 207.686 138.906 207.436 138.522 207.268C138.137 207.1 137.721 207.016 137.301 207.023C136.567 207.023 135.863 207.314 135.343 207.833C134.824 208.353 134.533 209.057 134.533 209.791C134.533 210.525 134.824 211.23 135.343 211.749C135.863 212.268 136.567 212.56 137.301 212.56C137.843 212.572 138.379 212.446 138.858 212.193L138.803 209.653Z" fill="white"/>
<path d="M149.979 208.601C149.979 210.525 148.539 211.722 146.235 211.722H144.442V214.096H142.449V205.472H146.179C148.512 205.472 149.979 206.697 149.979 208.601ZM147.965 208.601C147.965 207.652 147.342 207.099 146.124 207.099H144.442V210.096H146.069C147.314 210.096 147.937 209.542 147.937 208.601H147.965Z" fill="white"/>
<path d="M150.818 213.252L151.51 211.743C152.348 212.323 153.342 212.637 154.362 212.643C155.545 212.643 156.023 212.248 156.023 211.722C156.023 210.109 151.005 211.217 151.005 208.012C151.005 206.545 152.188 205.327 154.645 205.327C155.693 205.304 156.726 205.567 157.635 206.088L157.019 207.604C156.297 207.169 155.474 206.931 154.632 206.912C153.448 206.912 152.991 207.355 152.991 207.902C152.991 209.487 158.009 208.393 158.009 211.556C158.009 213.003 156.812 214.235 154.348 214.235C153.099 214.271 151.868 213.928 150.818 213.252Z" fill="white"/>
<path d="M146.374 119.267L170.654 156.352L146.519 152.705L122.945 156.352L146.374 119.267Z" fill="#455A64"/>
<g opacity="0.3">
<path opacity="0.3" d="M122.944 156.352L146.401 149.714L170.654 156.352L146.401 152.725L122.944 156.352Z" fill="black"/>
</g>
<path d="M146.376 119.267C146.479 119.267 146.563 126.085 146.569 134.494C146.576 142.904 146.5 149.721 146.403 149.721C146.306 149.721 146.216 142.911 146.21 134.494C146.203 126.078 146.279 119.267 146.376 119.267Z" fill="#263238"/>
<path d="M164.437 74.7416H133.512C130.756 74.7416 128.111 73.6489 126.159 71.7028C124.206 69.7568 123.105 67.1161 123.096 64.3595C123.096 62.9931 123.365 61.6403 123.889 60.3784C124.413 59.1165 125.181 57.9705 126.149 57.0059C127.117 56.0414 128.265 55.2774 129.529 54.7577C130.792 54.238 132.146 53.9728 133.512 53.9774H164.437C165.804 53.9728 167.157 54.238 168.421 54.7577C169.685 55.2774 170.833 56.0414 171.801 57.0059C172.769 57.9705 173.537 59.1165 174.06 60.3784C174.584 61.6403 174.854 62.9931 174.854 64.3595C174.845 67.1161 173.743 69.7568 171.791 71.7028C169.838 73.6489 167.194 74.7416 164.437 74.7416Z" fill="#455A64"/>
<path d="M137.155 65.7911V66.8847H132.677V65.9988L134.954 63.8532C135.473 63.3548 135.57 63.0503 135.57 62.7596C135.57 62.2958 135.252 62.0674 134.622 62.0674C134.386 62.0576 134.152 62.1061 133.939 62.2088C133.727 62.3114 133.543 62.4649 133.404 62.6558L132.407 62.0121C132.68 61.6524 133.036 61.3647 133.445 61.1742C133.854 60.9836 134.303 60.8958 134.754 60.9185C136.069 60.9185 136.941 61.6106 136.941 62.6627C136.933 63.028 136.84 63.3865 136.669 63.7096C136.498 64.0328 136.255 64.3118 135.958 64.5245L134.574 65.805L137.155 65.7911Z" fill="white"/>
<path d="M139.399 66.1435C139.387 66.4386 139.309 66.7272 139.17 66.9879L138.693 68.1992H137.855L138.215 66.8841C138.079 66.8275 137.962 66.7313 137.881 66.608C137.799 66.4846 137.757 66.3397 137.758 66.192C137.777 65.9892 137.871 65.8008 138.021 65.6636C138.172 65.5264 138.368 65.4503 138.572 65.4503C138.775 65.4503 138.971 65.5264 139.122 65.6636C139.272 65.8008 139.366 65.9892 139.385 66.192L139.399 66.1435Z" fill="white"/>
<path d="M144.444 65.0509C144.444 66.096 143.676 67.0027 141.994 67.0027C141.199 67.0183 140.416 66.7993 139.745 66.3729L140.284 65.3277C140.771 65.6799 141.358 65.8667 141.959 65.8607C142.652 65.8607 143.067 65.57 143.067 65.0924C143.067 64.6148 142.762 64.3241 141.683 64.3241H140.174L140.478 61.0088H144.077V62.1024H141.676L141.586 63.2236H142.063C143.752 63.2236 144.444 64.0058 144.444 65.0509Z" fill="white"/>
<path d="M146.477 65.6805L146.082 66.0474V66.5665H145.736V63.9087H146.082V65.6113L147.12 64.67H147.536L146.733 65.4521L147.612 66.5665H147.21L146.477 65.6805Z" fill="white"/>
<path d="M151.072 65.5014V66.595H150.726V65.5014C150.726 65.1277 150.553 64.9408 150.241 64.9408C150.16 64.937 150.079 64.9511 150.003 64.9822C149.928 65.0133 149.861 65.0606 149.806 65.1208C149.751 65.1809 149.71 65.2524 149.686 65.3302C149.662 65.4079 149.655 65.49 149.667 65.5707V66.5535H149.328V65.5014C149.328 65.1277 149.148 64.9408 148.836 64.9408C148.755 64.937 148.674 64.9511 148.598 64.9822C148.523 65.0133 148.456 65.0606 148.401 65.1208C148.346 65.1809 148.305 65.2524 148.281 65.3302C148.257 65.4079 148.25 65.49 148.262 65.5707V66.5535H147.902V64.6709H148.227V64.9477C148.304 64.8485 148.404 64.7696 148.519 64.7177C148.634 64.6659 148.759 64.6427 148.885 64.6501C149.016 64.64 149.148 64.6678 149.265 64.7304C149.382 64.7929 149.478 64.8876 149.542 65.0031C149.626 64.8886 149.737 64.7965 149.865 64.7349C149.993 64.6734 150.134 64.6442 150.276 64.6501C150.39 64.6291 150.508 64.6372 150.618 64.6735C150.728 64.7099 150.827 64.7734 150.907 64.8581C150.986 64.9429 151.042 65.0463 151.071 65.1587C151.1 65.2711 151.1 65.389 151.072 65.5014Z" fill="white"/>
<path d="M160.522 58.3781L154.701 62.4963L160.522 65.9985V58.3781Z" fill="white"/>
<path d="M167.518 68.2706H164.75V65.149C164.75 64.94 164.709 64.733 164.629 64.5398C164.549 64.3467 164.431 64.1712 164.284 64.0234C164.136 63.8755 163.96 63.7583 163.767 63.6783C163.574 63.5983 163.367 63.5571 163.158 63.5571H158.922V60.7885H163.13C164.286 60.7904 165.394 61.2504 166.212 62.0677C167.029 62.8851 167.489 63.9931 167.491 65.149L167.518 68.2706Z" fill="white"/>
<path d="M39.8663 116.703C39.8663 113.729 37.4554 111.318 34.4815 111.318C31.5075 111.318 29.0966 113.729 29.0966 116.703V147.455C29.0966 150.429 31.5075 152.84 34.4815 152.84C37.4554 152.84 39.8663 150.429 39.8663 147.455V116.703Z" fill="#ABA0FF"/>
<g opacity="0.3">
<path opacity="0.3" d="M39.1817 117.045C39.1817 117.975 38.906 118.883 38.3896 119.656C37.8732 120.429 37.1393 121.031 36.2805 121.387C35.4218 121.743 34.4768 121.836 33.5652 121.654C32.6535 121.473 31.8161 121.025 31.1589 120.368C30.5016 119.711 30.054 118.874 29.8727 117.962C29.6914 117.05 29.7844 116.105 30.1401 115.247C30.4958 114.388 31.0982 113.654 31.8711 113.137C32.6439 112.621 33.5525 112.345 34.482 112.345C35.0992 112.345 35.7103 112.467 36.2805 112.703C36.8507 112.939 37.3688 113.285 37.8052 113.722C38.2416 114.158 38.5878 114.676 38.8239 115.247C39.0601 115.817 39.1817 116.428 39.1817 117.045Z" fill="white"/>
</g>
<path d="M32.1923 119.424L34.4833 114.663L36.7742 119.404L34.4486 118.026L32.1923 119.424Z" fill="white"/>
<path d="M34.9304 128.677H33.8645V132.587H34.9304V128.677Z" fill="white"/>
<path d="M32.5308 130.103V131.169H36.4414V130.103H32.5308Z" fill="white"/>
<path d="M32.5308 145.801V146.867H36.4414V145.801H32.5308Z" fill="white"/>
<path d="M167.79 189.2H125.015C123.428 189.2 121.855 188.887 120.388 188.28C118.921 187.672 117.588 186.781 116.465 185.659C115.343 184.536 114.452 183.203 113.844 181.736C113.237 180.269 112.924 178.696 112.924 177.108C112.924 173.901 114.198 170.826 116.465 168.558C118.733 166.291 121.809 165.017 125.015 165.017H167.79C170.997 165.017 174.072 166.291 176.34 168.558C178.607 170.826 179.881 173.901 179.881 177.108C179.881 178.696 179.569 180.269 178.961 181.736C178.353 183.203 177.463 184.536 176.34 185.659C175.217 186.781 173.884 187.672 172.417 188.28C170.95 188.887 169.378 189.2 167.79 189.2Z" fill="#EBEBEB"/>
<path d="M167.791 189.546H125.016C123.323 189.644 121.627 189.395 120.033 188.814C118.438 188.233 116.98 187.333 115.746 186.168C114.512 185.004 113.529 183.599 112.857 182.042C112.185 180.484 111.839 178.805 111.839 177.108C111.839 175.412 112.185 173.733 112.857 172.175C113.529 170.617 114.512 169.213 115.746 168.048C116.98 166.883 118.438 165.983 120.033 165.402C121.627 164.822 123.323 164.573 125.016 164.67H167.791C170.965 164.854 173.949 166.244 176.132 168.557C178.314 170.869 179.53 173.928 179.53 177.108C179.53 180.288 178.314 183.347 176.132 185.66C173.949 187.972 170.965 189.362 167.791 189.546ZM125.016 165.363C123.415 165.267 121.811 165.5 120.304 166.048C118.796 166.595 117.416 167.445 116.248 168.545C115.081 169.645 114.151 170.972 113.515 172.444C112.879 173.917 112.551 175.504 112.551 177.108C112.551 178.712 112.879 180.299 113.515 181.772C114.151 183.245 115.081 184.572 116.248 185.672C117.416 186.772 118.796 187.621 120.304 188.169C121.811 188.716 123.415 188.949 125.016 188.854H167.791C170.785 188.676 173.598 187.361 175.655 185.177C177.713 182.994 178.858 180.108 178.858 177.108C178.858 174.109 177.713 171.222 175.655 169.039C173.598 166.856 170.785 165.541 167.791 165.363H125.016Z" fill="#263238"/>
<path d="M126.324 184.521C130.418 184.521 133.737 181.202 133.737 177.108C133.737 173.014 130.418 169.695 126.324 169.695C122.23 169.695 118.911 173.014 118.911 177.108C118.911 181.202 122.23 184.521 126.324 184.521Z" fill="white"/>
<path d="M126.324 184.866C124.788 184.87 123.286 184.419 122.007 183.568C120.729 182.718 119.731 181.508 119.141 180.091C118.55 178.673 118.394 177.113 118.691 175.606C118.988 174.1 119.725 172.715 120.809 171.628C121.894 170.541 123.276 169.8 124.782 169.499C126.287 169.198 127.848 169.35 129.267 169.937C130.686 170.523 131.899 171.518 132.753 172.794C133.606 174.071 134.062 175.572 134.062 177.107C134.06 179.161 133.245 181.13 131.795 182.584C130.344 184.038 128.377 184.859 126.324 184.866ZM126.324 170.04C124.925 170.036 123.557 170.447 122.392 171.221C121.227 171.995 120.318 173.097 119.78 174.388C119.242 175.679 119.099 177.101 119.369 178.473C119.64 179.845 120.311 181.106 121.299 182.097C122.286 183.087 123.545 183.762 124.917 184.036C126.288 184.311 127.71 184.172 129.002 183.638C130.295 183.104 131.4 182.198 132.177 181.035C132.955 179.873 133.37 178.506 133.37 177.107C133.375 175.232 132.636 173.432 131.315 172.102C129.994 170.771 128.199 170.02 126.324 170.013V170.04Z" fill="#ABA0FF"/>
<path d="M123.249 174.94V178.941H122.328V175.687H121.526V174.94H123.249Z" fill="#263238"/>
<path d="M123.948 176.935C123.948 175.613 124.682 174.858 125.665 174.858C126.648 174.858 127.374 175.606 127.374 176.935C127.374 178.264 126.682 179.011 125.665 179.011C124.647 179.011 123.948 178.264 123.948 176.935ZM126.447 176.935C126.447 176.028 126.128 175.647 125.665 175.647C125.201 175.647 124.889 176.028 124.889 176.935C124.889 177.842 125.208 178.222 125.665 178.222C126.121 178.222 126.447 177.848 126.447 176.935Z" fill="#263238"/>
<path d="M127.831 176.935C127.831 175.613 128.558 174.858 129.541 174.858C130.523 174.858 131.257 175.606 131.257 176.935C131.257 178.264 130.565 179.011 129.541 179.011C128.516 179.011 127.831 178.264 127.831 176.935ZM130.33 176.935C130.33 176.028 130.004 175.647 129.541 175.647C129.077 175.647 128.765 176.028 128.765 176.935C128.765 177.842 129.084 178.222 129.541 178.222C129.997 178.222 130.33 177.848 130.33 176.935Z" fill="#263238"/>
<path d="M145.874 176.354C145.874 179.497 144.102 181.199 141.527 181.199C140.729 181.231 139.937 181.045 139.236 180.659L139.735 179.635C140.273 179.949 140.891 180.101 141.513 180.071C143.375 180.071 144.559 178.901 144.559 176.61V176.243C144.253 176.65 143.85 176.974 143.387 177.186C142.924 177.397 142.416 177.49 141.908 177.455C140.081 177.455 138.766 176.361 138.766 174.686C138.766 173.011 140.185 171.779 142.012 171.779C144.483 171.765 145.874 173.42 145.874 176.354ZM144.261 174.603C144.261 173.662 143.5 172.831 142.06 172.831C141.808 172.802 141.552 172.826 141.309 172.903C141.066 172.979 140.842 173.105 140.652 173.274C140.461 173.442 140.308 173.649 140.203 173.88C140.097 174.112 140.041 174.363 140.039 174.617C140.039 175.697 140.842 176.396 142.116 176.396C143.389 176.396 144.261 175.621 144.261 174.603Z" fill="#263238"/>
<path d="M154.272 178.272C154.272 180.051 152.839 181.179 151.012 181.179C148.541 181.179 147.143 179.525 147.143 176.59C147.143 173.448 148.922 171.745 151.497 171.745C152.295 171.717 153.086 171.904 153.788 172.285L153.282 173.309C152.75 172.998 152.14 172.847 151.524 172.873C149.656 172.873 148.458 174.043 148.458 176.334C148.452 176.442 148.452 176.551 148.458 176.659C148.765 176.256 149.167 175.934 149.628 175.724C150.09 175.514 150.596 175.421 151.102 175.455C152.943 175.49 154.272 176.576 154.272 178.272ZM152.999 178.327C152.999 177.248 152.182 176.555 150.922 176.555C149.662 176.555 148.804 177.331 148.804 178.341C148.804 179.352 149.566 180.113 150.984 180.113C152.154 180.113 152.999 179.421 152.999 178.32V178.327Z" fill="#263238"/>
<path d="M158.224 179.01L157.719 179.48V180.172H157.282V176.767H157.719V178.954L159.047 177.743H159.573L158.556 178.747L159.677 180.172H159.137L158.224 179.01Z" fill="#263238"/>
<path d="M164.105 178.775V180.159H163.662V178.81C163.662 178.332 163.434 178.118 163.04 178.118C162.934 178.11 162.829 178.126 162.731 178.165C162.633 178.204 162.545 178.265 162.475 178.343C162.404 178.421 162.352 178.515 162.323 178.616C162.293 178.717 162.288 178.824 162.306 178.927V180.18H161.87V178.831C161.87 178.353 161.641 178.138 161.24 178.138C160.839 178.138 160.548 178.422 160.548 178.948V180.201H160.105V177.772H160.527V178.132C160.624 178.003 160.751 177.9 160.897 177.832C161.043 177.765 161.204 177.734 161.365 177.744C161.533 177.733 161.702 177.769 161.851 177.848C162 177.928 162.124 178.048 162.209 178.194C162.317 178.049 162.458 177.932 162.621 177.854C162.783 177.775 162.963 177.738 163.143 177.744C163.277 177.739 163.41 177.763 163.534 177.814C163.657 177.866 163.768 177.943 163.859 178.04C163.951 178.138 164.02 178.254 164.062 178.381C164.105 178.508 164.119 178.642 164.105 178.775Z" fill="#263238"/>
<path d="M165.9 176.31H166.302L164.786 180.629H164.391L165.9 176.31Z" fill="#263238"/>
<path d="M168.842 178.776V180.16H168.399V178.81C168.399 178.333 168.163 178.118 167.748 178.118C167.64 178.103 167.529 178.114 167.426 178.15C167.323 178.186 167.229 178.246 167.154 178.325C167.078 178.404 167.022 178.5 166.991 178.605C166.959 178.71 166.953 178.82 166.973 178.928V180.181H166.537V176.775H166.973V178.09C167.08 177.969 167.212 177.874 167.361 177.81C167.509 177.747 167.67 177.717 167.831 177.724C167.97 177.712 168.11 177.732 168.241 177.782C168.371 177.831 168.489 177.909 168.586 178.01C168.683 178.11 168.756 178.231 168.8 178.364C168.844 178.496 168.858 178.637 168.842 178.776Z" fill="#263238"/>
<path d="M180.1 27.2468C180.1 27.3437 152.179 27.4267 117.745 27.4267C83.311 27.4267 55.3831 27.3437 55.3831 27.2468C55.3831 27.1499 83.2971 27.0668 117.745 27.0668C152.193 27.0668 180.1 27.1499 180.1 27.2468Z" fill="white"/>
<path d="M33.1965 28.3544C33.1965 28.4513 29.6804 28.5689 25.3407 28.6174C21.001 28.6658 17.4849 28.6174 17.4849 28.5205C17.4849 28.4236 21.001 28.3059 25.3338 28.2575C29.6666 28.209 33.1896 28.2506 33.1965 28.3544Z" fill="white"/>
<g opacity="0.6">
<path opacity="0.6" d="M181.126 191.511C184.863 191.511 188.483 191.304 192.2 191.054C192.606 191.073 193.006 190.954 193.335 190.715C193.488 190.522 193.602 190.3 193.668 190.062C193.735 189.825 193.753 189.576 193.723 189.331C193.723 187.331 193.64 185.054 192.124 183.752C191.136 183.04 189.957 182.642 188.739 182.61C185.709 182.293 182.647 182.601 179.741 183.517L181.126 191.511Z" fill="#FAFAFA"/>
</g>
</svg>
